<?xml version="1.0" encoding="UTF-8"?>
<svg version="1.1" xmlns="http://www.w3.org/2000/svg" width="512" height="512">
<path d="M0 0 C0.84175781 0.71027344 1.68351563 1.42054688 2.55078125 2.15234375 C23.82908157 20.52465465 36.24103847 47.43881969 38.72265625 75.21484375 C39.06361801 79.86825143 39.31230324 84.34260818 39 89 C38.92007813 90.21429688 38.84015625 91.42859375 38.7578125 92.6796875 C36.85958783 115.45296008 28.44554589 137.93343642 13 155 C12.33871094 155.80179688 11.67742187 156.60359375 10.99609375 157.4296875 C-7.01933043 178.72969177 -32.98623076 190.54072206 -60.375 193.75 C-61.91517766 193.85739334 -63.45723107 193.94046362 -65 194 C-65.89203125 194.03996094 -66.7840625 194.07992187 -67.703125 194.12109375 C-97.82880273 194.80576824 -124.60470833 183.71079858 -147 164 C-147.60972656 163.4740625 -148.21945313 162.948125 -148.84765625 162.40625 C-169.23812188 143.51012109 -179.69508831 115.1719355 -181.1640625 87.9609375 C-181.85940769 60.96890147 -173.38169555 34.74498298 -156 14 C-155.15566406 12.99195313 -154.31132812 11.98390625 -153.44140625 10.9453125 C-136.55328237 -8.60805085 -112.58503421 -21.35098692 -87 -25 C-85.72769531 -25.18369141 -85.72769531 -25.18369141 -84.4296875 -25.37109375 C-54.43766031 -28.75459542 -22.76234418 -20.0933926 0 0 Z " fill="#4653D9" transform="translate(193,306)"/>
<path d="M0 0 C5.99399508 4.53309306 9.10213272 9.34137962 10.1875 16.8125 C10.90393749 23.15248106 8.7417981 29.13110455 4.80939889 34.09979773 C0.56714881 38.92334436 -4.03593433 43.40420452 -8.59838867 47.92138672 C-10.13240672 49.46190398 -11.66513947 51.00370202 -13.19668579 52.54667664 C-17.34630096 56.71931237 -21.51450809 60.87289576 -25.68705916 65.02258062 C-30.05769613 69.37426066 -34.41323676 73.74100695 -38.77107239 78.10549927 C-46.09014932 85.43091073 -53.42141846 92.74394617 -60.76000977 100.04980469 C-69.23690518 108.48920137 -77.69398312 116.94806749 -86.14076251 125.41759861 C-94.27708786 133.57489154 -102.42748429 141.71798512 -110.58428383 149.85480118 C-114.05084252 153.31338594 -117.51237725 156.7768858 -120.96993065 160.2444725 C-125.04368195 164.32879436 -129.12961819 168.40052687 -133.22517776 172.46297646 C-134.72380218 173.95341112 -136.21822738 175.44808216 -137.70804405 176.94732094 C-139.74709535 178.99784506 -141.80101001 181.0322583 -143.85929871 183.06344604 C-144.44123354 183.65585236 -145.02316837 184.24825868 -145.62273759 184.85861671 C-150.5356814 189.65225957 -156.0396777 192.75117917 -162.84375 193.96875 C-170.88054859 193.86953026 -176.85384129 192.32730398 -182.75 186.6875 C-187.0100498 180.17212972 -189.04064839 174.28551149 -187.47756386 166.44357872 C-184.39277388 156.5577231 -176.22006729 149.94340741 -169.07568359 142.86181641 C-167.5334434 141.31143839 -165.99248088 139.75978853 -164.45269775 138.20697021 C-160.28039391 134.00738338 -156.08941775 129.82691401 -151.89394331 125.65049028 C-147.49871039 121.27048344 -143.11817575 116.87581557 -138.73526001 112.48348999 C-130.90239943 104.63902602 -123.05453197 96.80976524 -115.20060904 88.98639505 C-108.09088565 81.90347547 -100.99703993 74.80497273 -93.91455078 67.69482422 C-85.67478175 59.42300507 -77.42507069 51.16131203 -69.16041052 42.91435754 C-64.79103069 38.55431572 -60.42576747 34.19035981 -56.07099533 29.81572342 C-51.97558657 25.70294004 -47.86569607 21.60519275 -43.74433136 17.51842499 C-42.23718642 16.01919093 -40.73508194 14.51486949 -39.23853683 13.00505447 C-28.2170471 1.89490819 -16.11775176 -9.75618473 0 0 Z " fill="#4653D9" transform="translate(489.875,15.5625)"/>
<path d="M0 0 C5.40579909 5.19964574 8.32151986 10.24241468 8.57421875 17.86328125 C7.89551692 29.09094868 -0.57248123 36.14163832 -8.09838867 43.64331055 C-9.17708736 44.72936034 -10.25516503 45.81602725 -11.33267212 46.90325928 C-14.24521219 49.83791257 -17.16721888 52.7629579 -20.09178329 55.68562293 C-22.53951719 58.13323668 -24.98288509 60.58518696 -27.42639714 63.03701431 C-33.19463544 68.82444945 -38.97096886 74.60371723 -44.75219727 80.37817383 C-50.70092771 86.32026393 -56.63474661 92.27695535 -62.56158465 98.24087495 C-67.66531528 103.37536616 -72.77873165 108.50007215 -77.8998087 113.61726218 C-80.95185861 116.66725145 -84.00007399 119.72083362 -87.03877831 122.78412437 C-89.8980391 125.6657553 -92.76926679 128.53491684 -95.64982986 131.39524841 C-96.69977031 132.44179713 -97.74553683 133.4925543 -98.78656578 134.54796791 C-106.7217964 142.5851586 -114.72982646 149.43204634 -126.5 149.625 C-133.70553416 148.59563798 -138.55928944 144.45533728 -142.89453125 138.80859375 C-146.19125015 133.22863491 -146.5725644 126.93420233 -145.5 120.625 C-142.37696121 112.59717388 -136.68284804 107.24824487 -130.67626953 101.29956055 C-129.56143965 100.18094276 -128.44746895 99.06146814 -127.33428955 97.94120789 C-124.32274737 94.91575801 -121.29885008 91.90294971 -118.27209711 88.89272666 C-115.10021378 85.73473892 -111.93854124 82.56655627 -108.77536011 79.39985657 C-103.46448327 74.08628177 -98.14559511 68.78083153 -92.82177734 63.48022461 C-86.67189334 57.35696818 -80.53455708 51.22135306 -74.40384591 45.07890481 C-68.49695712 39.16122898 -62.58160775 33.25208193 -56.66225815 27.34687233 C-54.14692964 24.83729348 -51.63453324 22.3248326 -49.1244545 19.81000328 C-46.16822354 16.8489923 -43.20462849 13.89555187 -40.23523712 10.94774055 C-39.14829178 9.86634848 -38.06386645 8.7824165 -36.98219681 7.69574738 C-35.50246565 6.21003738 -34.01376751 4.73392024 -32.52249146 3.2598114 C-31.69254229 2.43229213 -30.86259312 1.60477285 -30.00749397 0.75217724 C-21.24792689 -6.67880841 -8.94128399 -7.68752461 0 0 Z " fill="#3978DD" transform="translate(277.5,100.375)"/>
<path d="M0 0 C6.18665363 5.58441301 9.63542384 10.47925556 10.3125 18.875 C9.77672323 33.01950663 -3.14884508 42.29890786 -12.44165039 51.61865234 C-13.45479193 52.63807927 -14.46775135 53.65768721 -15.48054504 54.67745972 C-18.76609056 57.98376946 -22.05671837 61.28499649 -25.34765625 64.5859375 C-26.48824012 65.73057675 -27.62879306 66.87524682 -28.76931572 68.01994705 C-34.12212533 73.39173291 -39.47729133 78.76115574 -44.83540636 84.12764966 C-50.99709173 90.29913476 -57.15037669 96.47884212 -63.29679114 102.66553533 C-68.06878063 107.46771176 -72.84844665 112.26216053 -77.63389772 117.05092204 C-80.4838344 119.90320239 -83.33040938 122.75865241 -86.16887093 125.62235641 C-88.83517497 128.31199727 -91.51091115 130.99188802 -94.19402885 133.66475296 C-95.17301007 134.6432404 -96.14861564 135.62511952 -97.12043762 136.61071777 C-104.41703079 144.00487769 -111.32103715 150.02129719 -122.1875 150.3125 C-128.61533007 150.22770013 -133.00697195 148.75305253 -137.75390625 144.38671875 C-142.78519395 138.918982 -144.4644686 133.6112346 -144.2421875 126.2265625 C-142.98828057 114.6987085 -131.06224714 105.91259894 -123.37060547 98.2253418 C-122.31346221 97.16520032 -121.25652213 96.10485621 -120.19976807 95.04432678 C-117.35111237 92.18690105 -114.49928163 89.33266539 -111.64655828 86.47930121 C-109.86211045 84.69413967 -108.07837775 82.90826675 -106.29489517 81.12214088 C-100.06711816 74.88513846 -93.83678996 68.65069786 -87.60400391 62.41870117 C-81.80139991 56.61669942 -76.00441399 50.80912585 -70.2099961 44.99894971 C-65.22400308 39.99988233 -60.23416346 35.00467668 -55.24130929 30.01246196 C-52.26382522 27.03523261 -49.28790814 24.05647758 -46.31585312 21.07382774 C-43.52459583 18.27288958 -40.72857821 15.47679262 -37.92884064 12.68433189 C-36.90359843 11.66013506 -35.88005617 10.63423323 -34.85836411 9.6064949 C-33.4616393 8.20204179 -32.05810839 6.8043672 -30.65426636 5.4070282 C-29.87153791 4.62375499 -29.08880947 3.84048178 -28.28236198 3.03347301 C-20.48616203 -3.91256023 -9.14251944 -5.71182943 0 0 Z " fill="#5427D5" transform="translate(476,182)"/>
</svg>
